<svg viewBox="0 0 83.999998 72" version="1.1" xmlns="http://www.w3.org/2000/svg" xmlns:xlink="http://www.w3.org/1999/xlink">
    <g id="Page-1" stroke="none" stroke-width="1" fill="none" fill-rule="evenodd">
        <g id="Group" fill="currentColor" fill-rule="nonzero">
            <path d="M29,0 C27.892,0 27,0.89199 27,2 L27,8 L57,8 L57,2 C57,0.89199 56.107998,0 55,0 L29,0 Z M7,12 C3.122,12 0,15.12199 0,19 L0,65 C0,68.87801 3.122,72 7,72 L12.9688,72 L12.9688,12 L7,12 Z M16.9688,12 L16.9688,72 L67.031298,72 L67.031298,12 L16.9688,12 Z M71.031298,12 L71.031298,72 L76.999998,72 C80.877998,72 83.999998,68.87801 83.999998,65 L83.999998,19 C83.999998,15.122 80.877998,12 76.999998,12 L71.031298,12 Z" id="Shape"></path>
        </g>
    </g>
</svg>
