<svg viewBox="0 0 91.428906 91.425" version="1.1" xmlns="http://www.w3.org/2000/svg" xmlns:xlink="http://www.w3.org/1999/xlink">
    <g id="CV" stroke="none" stroke-width="1" fill="none" fill-rule="evenodd">
        <g id="Artboard" transform="translate(-27.286, -9)" fill="currentColor" fill-rule="nonzero">
            <g id="noun-cv-8135682" transform="translate(23, 9)">
                <path d="M81.43,0 L18.571,0 C10.6999,0 4.286,6.4141 4.286,14.285 L4.286,77.14 C4.286,85.0111 10.7001,91.425 18.571,91.425 L81.426,91.425 C89.2971,91.425 95.711,85.0109 95.711,77.14 L95.714906,14.285 C95.714906,6.4139 89.300806,0 81.429906,0 L81.43,0 Z M21.43,18.57 C21.43,16.9997 22.7152,15.7145 24.2855,15.7145 L38.5705,15.7145 C40.1408,15.7145 41.426,16.9997 41.426,18.57 L41.426,32.855 C41.426,34.4253 40.1408,35.7105 38.5705,35.7105 L24.2855,35.7105 C22.7152,35.7105 21.43,34.4253 21.43,32.855 L21.43,18.57 Z M75.715,72.859 L24.285,72.859 C22.7147,72.859 21.4295,71.5738 21.4295,70.0035 C21.4295,68.4332 22.7147,67.148 24.285,67.148 L75.715,67.148 C77.2853,67.148 78.5705,68.4332 78.5705,70.0035 C78.5705,71.5738 77.2853,72.859 75.715,72.859 Z M75.715,52.859 L24.285,52.859 C22.7147,52.859 21.4295,51.5738 21.4295,50.0035 C21.4295,48.4332 22.7147,47.148 24.285,47.148 L75.715,47.148 C77.2853,47.148 78.5705,48.4332 78.5705,50.0035 C78.5705,51.5738 77.2853,52.859 75.715,52.859 Z M75.715,32.859 L52.86,32.859 C51.2897,32.859 50.0045,31.5738 50.0045,30.0035 C50.0045,28.4332 51.2897,27.148 52.86,27.148 L75.715,27.148 C77.2853,27.148 78.5705,28.4332 78.5705,30.0035 C78.5705,31.5738 77.2853,32.859 75.715,32.859 Z M35.715,29.9996 L27.1447,29.9996 L27.1447,21.4293 L35.715,21.4293 L35.715,29.9996 Z" id="Shape"></path>
            </g>
        </g>
    </g>
</svg>
