<svg viewBox="0 0 91.429 91.425" xmlns="http://www.w3.org/2000/svg"><path d="M77.144 0H14.285C6.414 0 0 6.414 0 14.285V77.14c0 7.871 6.414 14.285 14.285 14.285H77.14c7.871 0 14.285-6.414 14.285-14.285l.004-62.855C91.429 6.414 85.015 0 77.144 0zm-60 18.57a2.864 2.864 0 0 1 2.855-2.856h14.286a2.864 2.864 0 0 1 2.855 2.856v14.285a2.864 2.864 0 0 1-2.855 2.856H20a2.864 2.864 0 0 1-2.856-2.856V18.57zm54.285 54.289h-51.43a2.864 2.864 0 0 1-2.855-2.855 2.864 2.864 0 0 1 2.855-2.856h51.43a2.864 2.864 0 0 1 2.855 2.856 2.864 2.864 0 0 1-2.855 2.855zm0-20h-51.43a2.864 2.864 0 0 1-2.855-2.855 2.864 2.864 0 0 1 2.855-2.856h51.43a2.864 2.864 0 0 1 2.855 2.855 2.864 2.864 0 0 1-2.855 2.856zm0-20H48.574a2.864 2.864 0 0 1-2.855-2.856 2.864 2.864 0 0 1 2.855-2.855h22.855a2.864 2.864 0 0 1 2.855 2.855 2.864 2.864 0 0 1-2.855 2.856zm-40-2.86h-8.57v-8.57h8.57V30z" fill="currentColor" fill-rule="nonzero"/></svg>