<svg xmlns="http://www.w3.org/2000/svg" width="71" height="50"><path d="M2.347 1.712 27.589 23.36l.031.027 4.719 4.047c.84.719 1.969 1.074 3.113 1.07 1.149-.004 2.293-.379 3.149-1.113l4.664-4 .039-.035L68.53 1.719A3.408 3.408 0 0 0 66.44 1H4.425c-.777.004-1.5.266-2.078.71v.002Zm66.184 46.18a3.405 3.405 0 0 1-2.09.715H4.425a3.4 3.4 0 0 1-2.078-.711l24.031-20.61 3.508 3.008c1.543 1.325 3.566 1.98 5.578 1.97 2.008-.009 4.035-.684 5.586-2.013l3.457-2.964L68.53 47.892ZM47.402 24.806 69.867 5.54v38.53L47.402 24.807ZM1 44.086V5.526l22.484 19.28L1 44.088Z"/></svg>