<svg
  width="55.9831316px"
  height="56.1014005px"
  viewBox="0 0 55.9831316 56.1014005"
  version="1.1"
  xmlns="http://www.w3.org/2000/svg"
  xmlns:xlink="http://www.w3.org/1999/xlink"
>
  <g id="Page-1" stroke="none" stroke-width="1" fill="none" fill-rule="evenodd">
    <g
      id="Artboard"
      transform="translate(-2.0087, -1.8986)"
      fill="currentColor"
    >
      <path
        d="M20.2179657,50.5199855 C23.3330712,50.7289866 26.5937241,50.8333333 30,50.8333333 C33.1182644,50.8333333 36.1144906,50.7458863 38.9879519,50.5708973 C37.5877245,53.8422281 35.6579102,56.2216075 33.2150417,57.7217823 L33.2692563,57.8111744 C32.1968214,57.9358867 31.1058979,58 30,58 C28.6424915,58 27.3075465,57.9033943 26.0016647,57.7166826 C23.551874,56.2073924 21.6182461,53.8134437 20.2179657,50.5199855 Z M50.2531108,49.3342736 C47.1602643,52.5731677 43.2983171,55.0713152 38.9603954,56.5355899 C40.3192447,54.8137621 41.4338867,52.7426768 42.3089844,50.3246871 C45.0761353,50.0818698 47.7223427,49.7520071 50.2476637,49.3348659 Z M9.74659691,49.3339042 C12.029771,49.7111952 14.4118014,50.0171418 16.8927432,50.2519178 C17.7077596,52.5234156 18.7330454,54.4905592 19.9717517,56.1509191 C16.1377726,54.6797389 12.7083622,52.3887687 9.89931913,49.4926597 Z M17.4992372,33.3077019 C21.4220601,33.6583455 25.5889264,33.8333333 30,33.8333333 C34.1229862,33.8333333 38.0326218,33.680456 41.7275291,33.3745132 C41.7248213,38.9903623 41.1679901,43.6925745 40.0727185,47.492731 C36.8799661,47.7196768 33.5223632,47.8333333 30,47.8333333 C26.1860158,47.8333333 22.5652027,47.7000782 19.1368691,47.434868 C18.0511359,43.6345315 17.5,38.9382703 17.5,33.3333333 Z M57.991872,30.6813634 C57.8586709,36.2588783 56.0945049,41.4324898 53.158001,45.7435712 C50.0704633,46.3841077 46.7684989,46.8779146 43.2518331,47.2243677 C44.2395217,43.3164209 44.7275391,38.6830811 44.7275391,33.3333333 L44.7280701,33.0868735 C49.4119486,32.5756441 53.7307583,31.801423 57.684799,30.7629878 Z M2.00874048,30.6816439 C5.82874839,31.702818 9.992578,32.474818 14.5006378,32.9985443 L14.5,33.3333333 C14.5,38.6460571 14.9812859,43.2522546 15.9543651,47.1429151 C12.7331723,46.8021486 9.695546,46.3354335 6.84159213,45.7432012 C3.94789058,41.4943374 2.19283321,36.4086226 2.01496637,30.924248 Z M20.0928924,14.5115325 C23.2457646,14.7261731 26.5481076,14.8333333 30,14.8333333 C33.1765938,14.8333333 36.226541,14.7425842 39.1496296,14.5591196 C40.6202951,19.2898501 41.4628002,24.558104 41.6742191,30.3682263 C38.0079368,30.6781022 34.1164825,30.8333333 30,30.8333333 C25.5941181,30.8333333 21.4460166,30.6555087 17.5556258,30.3007496 C17.7679083,24.604563 18.5876241,19.4298867 20.0120298,14.7726549 Z M52.2369706,12.9824332 C55.3947509,17.102508 57.4333278,22.1255768 57.8983514,27.5972897 C53.9060524,28.7099159 49.4949482,29.5364169 44.6654506,30.0755026 C44.4437349,24.3486463 43.6280638,19.0997865 42.2159522,14.3328139 C45.506209,14.046693 48.6258069,13.6377498 51.5748419,13.1055937 Z M7.76339547,12.983398 C10.6828234,13.5332213 13.7723142,13.9600747 17.0319438,14.2643157 C15.6149034,19.0251067 14.793885,24.2671676 14.5665704,29.9869586 C10.0356828,29.4474421 5.8803025,28.6504318 2.10073934,27.5971901 C2.56182802,22.1848664 4.56099296,17.2122925 7.65971987,13.1180749 Z M30,2 C31.01013,2 32.0077668,2.05348997 32.9902324,2.15779193 C35.0749971,4.99275738 36.7872513,8.14452897 38.1265754,11.6158973 C35.5229055,11.7607922 32.8140318,11.8333333 30,11.8333333 C26.912796,11.8333333 23.9521574,11.7460247 21.1182085,11.5702634 C22.4961034,8.01129851 24.2667093,4.78812101 26.4285881,1.89859952 L26.1615501,2.26092788 C27.416448,2.0888882 28.6978435,2 30,2 Z M37.1295858,2.91580849 C42.0635955,4.21111137 46.4658314,6.81895087 49.9405571,10.3435905 C47.1984046,10.8030311 44.3018982,11.1557499 41.250913,11.4022677 C40.1794003,8.45850996 38.8597348,5.71528334 37.2912664,3.1735511 Z M21.9320816,3.1803908 C20.3766858,5.7021213 19.0661817,8.42226813 18.0001043,11.3402415 C15.2229709,11.0976838 12.5759848,10.7657545 10.0592091,10.3447116 C13.225537,7.13201593 17.1616923,4.68161063 21.5685338,3.2917499 Z"
        id="Combined-Shape"
      ></path>
    </g>
  </g>
</svg>
