<?xml version="1.0" encoding="UTF-8"?>
<svg width="104px" height="104px" viewBox="0 0 104 104" version="1.1" xmlns="http://www.w3.org/2000/svg" xmlns:xlink="http://www.w3.org/1999/xlink">
    <title>Artboard</title>
    <g id="Artboard" stroke="none" stroke-width="1" fill="none" fill-rule="evenodd">
        <g id="Group" transform="translate(32, 2)" fill="#000000" fill-rule="nonzero">
            <path d="M31.7463287,40.2407212 C31.8963287,39.7007212 32.0563287,39.1607212 32.2063287,38.6107212 L32.2063287,38.6107212 L34.2063287,31.6607212 L5.47632868,36.2607212 L5.22632868,37.9007212 C5.12835313,38.2869877 5.07137157,38.6825068 5.05632868,39.0807212 C6.24636653,39.0906499 7.43490645,39.1674376 8.61632868,39.3107212 C11.4163287,39.7807212 12.7163287,41.6207212 12.3063287,44.3907212 C12.2402055,45.089688 12.1333573,45.7842014 11.9863287,46.4707212 C10.0463287,53.3707212 8.09632868,60.2740545 6.13632868,67.1807212 C4.20632868,73.9807212 2.07632868,80.7307212 0.40632868,87.5907212 C-1.51367132,95.3807212 3.56632868,100.800721 11.5163287,99.9007212 C14.9167276,99.4834687 18.1354248,98.1336925 20.8163287,96.0007212 C25.9163287,92.1407212 29.4163287,87.0007212 32.6863287,81.4007212 L30.3763287,80.0007212 C28.7163287,82.2307212 27.2463287,84.3807212 25.5763287,86.3607212 C24.4336529,87.7252661 23.1309592,88.9473808 21.6963287,90.0007212 C20.9627128,90.3954126 20.0799446,90.3954126 19.3463287,90.0007212 C18.6976478,89.4052046 18.3338597,88.5612162 18.3463287,87.6807212 C18.4506281,86.4433475 18.709303,85.2238802 19.1163287,84.0507212 C23.3229953,69.4640545 27.5329953,54.8607212 31.7463287,40.2407212 Z" id="Path"></path>
            <path d="M29.6163287,0.0007211881 C26.8597703,-0.0320210061 24.2071142,1.05132331 22.261566,3.00440508 C20.3160179,4.95748685 19.2429334,7.61430994 19.2863287,10.3707212 C19.2863286,14.0684201 21.2590274,17.4852349 24.4613286,19.3340844 C27.6636298,21.1829339 31.6090276,21.1829339 34.8113288,19.3340844 C38.01363,17.4852349 39.9864506,14.0684201 39.9864506,10.3707212 C39.9997062,7.61634695 38.9114521,4.97091717 36.9637924,3.02325749 C35.0161327,1.07559782 32.3707029,-0.0126562915 29.6163287,0.0007211881 L29.6163287,0.0007211881 Z" id="Path"></path>
        </g>
    </g>
</svg>