<svg width="104" height="104" xmlns="http://www.w3.org/2000/svg"><g fill="#000" fill-rule="nonzero"><path d="M63.746 42.24c.15-.54.31-1.08.46-1.63l2-6.95-28.73 4.6-.25 1.64a5.67 5.67 0 0 0-.17 1.18c1.19.01 2.379.087 3.56.23 2.8.47 4.1 2.31 3.69 5.08a18.05 18.05 0 0 1-.32 2.08c-1.94 6.9-3.89 13.804-5.85 20.71-1.93 6.8-4.06 13.55-5.73 20.41-1.92 7.79 3.16 13.21 11.11 12.31a18.57 18.57 0 0 0 9.3-3.9c5.1-3.86 8.6-9 11.87-14.6l-2.31-1.4c-1.66 2.23-3.13 4.38-4.8 6.36a22.19 22.19 0 0 1-3.88 3.64 2.48 2.48 0 0 1-2.35 0 3.09 3.09 0 0 1-1-2.32 14.89 14.89 0 0 1 .77-3.63c4.207-14.586 8.417-29.19 12.63-43.81zM61.616 2a10.21 10.21 0 0 0-10.33 10.37 10.35 10.35 0 1 0 20.7 0A10.32 10.32 0 0 0 61.616 2z"/></g></svg>