<?xml version="1.0" encoding="UTF-8"?>
<svg width="30px" height="30px" viewBox="0 0 30 30" version="1.1" xmlns="http://www.w3.org/2000/svg" xmlns:xlink="http://www.w3.org/1999/xlink">
    <title>muted</title>
    <g id="muted" stroke="none" stroke-width="1" fill="none" fill-rule="evenodd">
        <path d="M2,9.64705882 L7.85861215,9.64705882 C8.10858723,9.64705882 8.34949779,9.55343558 8.53387394,9.38463696 L14.9247382,3.53372264 C15.3320914,3.16078585 15.9646413,3.18868583 16.3375781,3.59603898 C16.5063768,3.78041514 16.6,4.0213257 16.6,4.27130078 L16.6,12.6804199 L16.6,25.7238185 C16.6,26.2761033 16.1522847,26.7238185 15.6,26.7238185 C15.349479,26.7238185 15.1080831,26.6297868 14.9235721,26.4603274 L8.56061626,20.6164323 C8.3761053,20.4469729 8.13470941,20.3529412 7.88418839,20.3529412 L2,20.3529412 C1.44771525,20.3529412 1,19.9052259 1,19.3529412 L1,10.6470588 C1,10.0947741 1.44771525,9.64705882 2,9.64705882 Z" id="Rectangle" fill="#FFFFFF"></path>
        <g id="Group" transform="translate(19, 11)" stroke="#FFFFFF" stroke-linecap="round" stroke-linejoin="round" stroke-width="2">
            <line x1="0.5" y1="0.5" x2="8.5" y2="8.5" id="Line"></line>
            <line x1="0.5" y1="8.5" x2="8.5" y2="0.5" id="Line-2"></line>
        </g>
    </g>
</svg>