<svg width="30" height="30" xmlns="http://www.w3.org/2000/svg"><g fill="none" fill-rule="evenodd"><path d="M2 9.647h5.859a1 1 0 0 0 .675-.262l6.39-5.851a1 1 0 0 1 1.676.737v21.453a1 1 0 0 1-1.676.736L8.56 20.616a1 1 0 0 0-.677-.263H2a1 1 0 0 1-1-1v-8.706a1 1 0 0 1 1-1z" fill="#FFF"/><path d="M18.786 13c.666.822 1 1.652 1 2.49 0 .836-.334 1.673-1 2.51M21.786 10c1.333 1.81 2 3.635 2 5.476 0 1.841-.667 3.683-2 5.524M24.786 7c2 2.796 3 5.617 3 8.463 0 2.846-1 5.691-3 8.537" stroke="#FFF" stroke-width="2" stroke-linecap="round" stroke-linejoin="round"/></g></svg>