<?xml version="1.0" encoding="UTF-8"?>
<svg width="60px" height="60px" viewBox="0 0 60 60" version="1.1" xmlns="http://www.w3.org/2000/svg" xmlns:xlink="http://www.w3.org/1999/xlink">
    <!-- Generator: Sketch 45.2 (43514) - http://www.bohemiancoding.com/sketch -->
    <title>Icon / Full beam</title>
    <desc>Created with Sketch.</desc>
    <defs></defs>
    <g id="Symbols" stroke="none" stroke-width="1" fill="none" fill-rule="evenodd">
        <g id="Icon-/-Full-beam">
            <circle id="Background" fill="" cx="30" cy="30" r="30"></circle>
            <g id="noun_457487_cc" transform="translate(12.000000, 18.000000)" fill-rule="nonzero" fill="#00D5FF">
                <path d="M18.3979058,0 C17.7277487,0 17.0575916,0.0406779661 16.3874346,0.0813559322 C14.8795812,3.74237288 14,7.76949153 14,12 C14,16.1898305 14.8376963,20.2169492 16.3874346,23.9186441 C17.0575916,23.959322 17.7277487,24 18.3979058,24 C29.2460733,23.9186441 38,18.5491525 38,11.959322 C38,5.36949153 29.2460733,0 18.3979058,0 Z M18.3979058,21.8440678 C18.2303665,21.8440678 18.0628272,21.8440678 17.895288,21.8440678 C16.7643979,18.6711864 16.1780105,15.3762712 16.1780105,11.959322 C16.1780105,8.58305085 16.7643979,5.24745763 17.895288,2.07457627 C18.0628272,2.07457627 18.2303665,2.07457627 18.3979058,2.07457627 C27.8638743,2.07457627 35.8219895,6.58983051 35.8219895,11.959322 C35.8638743,17.3288136 27.8638743,21.8440678 18.3979058,21.8440678 Z" id="Shape"></path>
                <path d="M10.8654545,6 L1.13454545,6 C0.523636364,6 0,6.46153846 0,7 C0,7.53846154 0.523636364,8 1.13454545,8 L10.8654545,8 C11.4763636,8 12,7.53846154 12,7 C11.9563636,6.46153846 11.4763636,6 10.8654545,6 Z" id="Shape"></path>
                <path d="M10.8654545,2 L1.13454545,2 C0.523636364,2 0,2.46153846 0,3 C0,3.53846154 0.523636364,4 1.13454545,4 L10.8654545,4 C11.4763636,4 12,3.53846154 12,3 C11.9563636,2.46153846 11.4763636,2 10.8654545,2 Z" id="Shape"></path>
                <path d="M10.8654545,11 L1.13454545,11 C0.523636364,11 0,11.4615385 0,12 C0,12.5384615 0.523636364,13 1.13454545,13 L10.8654545,13 C11.4763636,13 12,12.5384615 12,12 C11.9563636,11.4615385 11.4763636,11 10.8654545,11 Z" id="Shape"></path>
                <path d="M10.8654545,16 L1.13454545,16 C0.523636364,16 0,16.4615385 0,17 C0,17.5384615 0.523636364,18 1.13454545,18 L10.8654545,18 C11.4763636,18 12,17.5384615 12,17 C11.9563636,16.4615385 11.4763636,16 10.8654545,16 Z" id="Shape"></path>
                <path d="M10.8654545,20 L1.13454545,20 C0.523636364,20 0,20.4615385 0,21 C0,21.5384615 0.523636364,22 1.13454545,22 L10.8654545,22 C11.4763636,22 12,21.5384615 12,21 C12,20.4615385 11.4763636,20 10.8654545,20 Z" id="Shape"></path>
            </g>
        </g>
    </g>
</svg>
