<?xml version="1.0" encoding="UTF-8"?>
<svg width="60px" height="60px" viewBox="0 0 60 60" version="1.1" xmlns="http://www.w3.org/2000/svg" xmlns:xlink="http://www.w3.org/1999/xlink">
    <!-- Generator: Sketch 45.2 (43514) - http://www.bohemiancoding.com/sketch -->
    <title>Icon / Tire Preasure</title>
    <desc>Created with Sketch.</desc>
    <defs></defs>
    <g id="Symbols" stroke="none" stroke-width="1" fill="none" fill-rule="evenodd">
        <g id="Icon-/-Tire-Preasure">
            <circle id="Background" fill="" cx="30" cy="30" r="30"></circle>
            <g id="noun_457492_cc" transform="translate(12.000000, 17.000000)" fill-rule="nonzero" fill="#ED2E2D">
                <circle id="Oval" cx="19" cy="18" r="2"></circle>
                <polygon id="Shape" points="20.4615385 15 21 1 17 1 17.5384615 15"></polygon>
                <path d="M36,14.2011494 C36,11.2241379 34.8812431,8.36781609 32.8035516,6.23563218 C31.6448391,4.38505747 31.0055494,2.21264368 31.0055494,0 L27.9289678,0 C27.9289678,2.85632184 28.7680355,5.63218391 30.3263041,8.04597701 L30.4062153,8.16666667 L30.5260821,8.28735632 C32.0843507,9.85632184 32.9234184,11.9482759 32.9234184,14.1609195 C32.9234184,18.7471264 29.2075472,22.4885057 24.6526082,22.4885057 C24.372919,22.4885057 24.0532741,22.4885057 23.7336293,22.4482759 L23.6537181,22.4482759 L12.5061043,22.5287356 L11.427303,22.5287356 C6.83240844,22.5689655 3.11653718,18.8275862 3.11653718,14.2011494 C3.11653718,11.9885057 3.95560488,9.89655172 5.51387347,8.32758621 L5.63374029,8.20689655 L5.7136515,8.0862069 C7.27192009,5.67241379 8.07103219,2.89655172 8.07103219,0.0402298851 L4.99445061,0.0402298851 C4.99445061,2.25287356 4.35516093,4.38505747 3.19644839,6.27586207 C1.11875694,8.40804598 0,11.2241379 0,14.2413793 C0,18.6264368 2.4772475,22.4482759 6.07325194,24.3793103 L6.07325194,28 L9.86903441,28 L9.86903441,25.5862069 C10.2685905,25.6264368 10.6681465,25.6666667 11.1076582,25.6666667 L11.1076582,27.9597701 L14.9034406,27.9597701 L14.9034406,25.6666667 L16.1420644,25.6666667 L16.1420644,28 L19.9378468,28 L19.9378468,25.6666667 L21.1764706,25.6666667 L21.1764706,28 L24.9722531,28 L24.9722531,25.6666667 C25.3718091,25.6666667 25.8113208,25.6264368 26.2108768,25.5862069 L26.2108768,28 L30.0066593,28 L30.0066593,24.3793103 C33.5227525,22.408046 36,18.5862069 36,14.2011494 Z" id="Shape"></path>
            </g>
        </g>
    </g>
</svg>
