<?xml version="1.0" encoding="UTF-8"?>
<svg width="181px" height="319px" viewBox="0 0 181 319" version="1.1" xmlns="http://www.w3.org/2000/svg" xmlns:xlink="http://www.w3.org/1999/xlink">
    <!-- Generator: Sketch 43.1 (39012) - http://www.bohemiancoding.com/sketch -->
    <title>Group 5</title>
    <desc>Created with Sketch.</desc>
    <defs></defs>
    <g id="Page-3" stroke="none" stroke-width="1" fill="none" fill-rule="evenodd">
        <g id="Group-5" transform="translate(2.000000, 2.000000)">
            <rect id="Rectangle-4" stroke="#000000" stroke-width="3" fill="#FFFFFF" x="0" y="0" width="177" height="76" rx="24"></rect>
            <rect id="Rectangle-4-Copy" stroke="#000000" stroke-width="3" fill="#FFFFFF" x="0" y="121" width="177" height="76" rx="24"></rect>
            <text id="Chatbot-interface" font-family="HelveticaNeue-Medium, Helvetica Neue" font-size="15" font-weight="400" fill="#000000">
                <tspan x="28.2075" y="44">Chatbot interface</tspan>
            </text>
            <text id="Project-search-and-i" font-family="HelveticaNeue-Medium, Helvetica Neue" font-size="15" font-weight="400" fill="#000000">
                <tspan x="38.3525" y="156">Project search </tspan>
                <tspan x="43.655" y="174">and indexing</tspan>
            </text>
            <g id="Group" transform="translate(55.000000, 239.000000)">
                <ellipse id="Oval-Copy" stroke="#000000" stroke-width="3" fill="#FFFFFF" cx="33.9421168" cy="62.32" rx="31.9083228" ry="13.68"></ellipse>
                <rect id="Rectangle" fill="#FFFFFF" x="0.704280487" y="12.92" width="66.4756726" height="50.16"></rect>
                <ellipse id="Oval" stroke="#000000" stroke-width="3" fill="#FFFFFF" cx="33.9421168" cy="13.68" rx="31.9083228" ry="13.68"></ellipse>
                <path d="M65.8504396,47.12 C65.8504396,54.6752554 51.5645969,60.8 33.9421168,60.8 C16.3196367,60.8 2.03379394,54.6752554 2.03379394,47.12" id="Oval-Copy-2" stroke="#000000" stroke-width="3" fill="#FFFFFF"></path>
                <path d="M65.8504396,29.64 C65.8504396,37.1952554 51.5645969,43.32 33.9421168,43.32 C16.3196367,43.32 2.03379394,37.1952554 2.03379394,29.64" id="Oval-Copy-3" stroke="#000000" stroke-width="3" fill="#FFFFFF"></path>
                <path d="M1.5,14.06 L1.5,62.1266204" id="Line" stroke="#000000" stroke-width="3" stroke-linecap="square"></path>
                <path d="M65.5,14.06 L65.5,62.1266204" id="Line-Copy" stroke="#000000" stroke-width="3" stroke-linecap="square"></path>
            </g>
            <path d="M88.6666667,229.5 L88.6666667,209" id="Line-Copy-2" stroke="#4A4A4A" stroke-width="2" fill="#9B9B9B" stroke-linecap="square"></path>
            <path id="Line-Copy-2-decoration-1" d="M88.6666667,209 L85.6666667,219.8 L91.6666667,219.8 L88.6666667,209 Z" stroke="#4A4A4A" stroke-width="2" fill="#9B9B9B" stroke-linecap="square"></path>
            <path d="M81.6666667,109.5 L81.6666667,89" id="Line-Copy-5" stroke="#4A4A4A" stroke-width="2" fill="#9B9B9B" stroke-linecap="square"></path>
            <path id="Line-Copy-5-decoration-1" d="M81.6666667,89 L78.6666667,99.8 L84.6666667,99.8 L81.6666667,89 Z" stroke="#4A4A4A" stroke-width="2" fill="#9B9B9B" stroke-linecap="square"></path>
            <path d="M95.6666667,107.5 L95.6666667,87" id="Line-Copy-4" stroke="#4A4A4A" stroke-width="2" fill="#9B9B9B" stroke-linecap="square" transform="translate(96.000000, 97.500000) scale(1, -1) translate(-96.000000, -97.500000) "></path>
            <path id="Line-Copy-4-decoration-1" d="M95.6666667,87 L92.6666667,97.8 L98.6666667,97.8 L95.6666667,87 Z" stroke="#4A4A4A" stroke-width="2" fill="#9B9B9B" stroke-linecap="square"></path>
        </g>
    </g>
</svg>