<?xml version="1.0" encoding="UTF-8"?>
<svg width="60px" height="60px" viewBox="0 0 60 60" version="1.1" xmlns="http://www.w3.org/2000/svg" xmlns:xlink="http://www.w3.org/1999/xlink">
    <!-- Generator: Sketch 45.2 (43514) - http://www.bohemiancoding.com/sketch -->
    <title>Icon / Petrol</title>
    <desc>Created with Sketch.</desc>
    <defs></defs>
    <g id="Symbols" stroke="none" stroke-width="1" fill="none" fill-rule="evenodd">
        <g id="Icon-/-Petrol">
            <circle id="Background" fill="#000000" cx="30" cy="30" r="30"></circle>
            <g id="noun_457518_cc" transform="translate(19.000000, 15.000000)" fill-rule="nonzero" fill="#ED2E2D">
                <path d="M20.4951321,15.1666667 C21.2628651,13.4 22.1307371,12.4666667 22.2976356,12.2666667 L23.4659249,13.1 L23.2990264,10.4 L17.7246175,7.46666667 L17.45758,8.83333333 L20.0945758,10.7 C19.7273992,11.1333333 19.1265647,11.9333333 18.5257302,13.1 C17.3908206,12.0333333 16.4228095,11.2666667 16.0556328,11 L16.0556328,1.1 C16.0556328,0.5 15.5549374,0 14.9541029,0 L2.16968011,0 C1.56884562,0 1.06815021,0.5 1.06815021,1.1 L1.06815021,26.3333333 L0,26.3333333 L0,30 L17.0904033,30 L17.0904033,26.3333333 L16.0222531,26.3333333 L16.0222531,14.5666667 C16.4561892,14.9666667 16.9235049,15.4 17.3574409,15.8333333 C16.8567455,17.4333333 16.4895688,19.3333333 16.4895688,21.6 C16.4895688,27.0333333 19.1933241,27.4333333 20.0278164,27.4333333 C22.1974965,27.4333333 24,25.0333333 24,22.1 C23.9666203,19.7666667 22.2976356,17.2333333 20.4951321,15.1666667 Z M14.0528512,9.86666667 C14.0528512,10.4666667 13.5521558,10.9666667 12.9513213,10.9666667 L4.10570236,10.9666667 C3.50486787,10.9666667 3.00417246,10.4666667 3.00417246,9.86666667 L3.00417246,3.53333333 C3.00417246,2.93333333 3.50486787,2.43333333 4.10570236,2.43333333 L12.9179416,2.43333333 C13.5187761,2.43333333 14.0194715,2.93333333 14.0194715,3.53333333 L14.0194715,9.86666667 L14.0528512,9.86666667 Z M20.0278164,24.7333333 C19.9944367,24.7333333 19.8609179,24.6333333 19.7273992,24.4 C19.527121,24.0666667 19.2267038,23.2666667 19.2267038,21.6333333 C19.2267038,20.4 19.3602225,19.3 19.527121,18.3333333 C20.5618915,19.7 21.2628651,21.0666667 21.2628651,22.1666667 C21.2628651,23.8 20.394993,24.7333333 20.0278164,24.7333333 Z" id="Shape"></path>
            </g>
        </g>
    </g>
</svg>