<?xml version="1.0" encoding="UTF-8"?>
<svg width="60px" height="60px" viewBox="0 0 60 60" version="1.1" xmlns="http://www.w3.org/2000/svg" xmlns:xlink="http://www.w3.org/1999/xlink">
    <!-- Generator: Sketch 45.2 (43514) - http://www.bohemiancoding.com/sketch -->
    <title>Icon / Tempature</title>
    <desc>Created with Sketch.</desc>
    <defs></defs>
    <g id="Symbols" stroke="none" stroke-width="1" fill="none" fill-rule="evenodd">
        <g id="Icon-/-Tempature">
            <circle id="Background" fill="#000000" cx="30" cy="30" r="30"></circle>
            <g id="noun_457516_cc-(1)" transform="translate(13.000000, 14.000000)" fill-rule="nonzero" fill="#ED2E2D">
                <path d="M17.4917355,23 C18.8677686,23 19.9834711,21.8557214 19.9834711,20.4444444 C19.9834711,19.4908789 19.4628099,18.6517413 18.6818182,18.1940299 L18.6818182,13.1973466 L22.8099174,13.1973466 C23.4793388,13.1973466 24,12.6633499 24,11.9767828 C24,11.2902156 23.4793388,10.7562189 22.8099174,10.7562189 L18.6818182,10.7562189 L18.6818182,9.15422886 L22.8099174,9.15422886 C23.4793388,9.15422886 24,8.62023217 24,7.93366501 C24,7.24709784 23.4793388,6.71310116 22.8099174,6.71310116 L18.6818182,6.71310116 L18.6818182,5.14925373 L22.8099174,5.14925373 C23.4793388,5.14925373 24,4.61525705 24,3.92868988 C24,3.24212272 23.4793388,2.70812604 22.8099174,2.70812604 L18.6818182,2.70812604 L18.6818182,1.22056385 C18.6818182,0.533996683 18.161157,0 17.4917355,0 C16.822314,0 16.3016529,0.533996683 16.3016529,1.22056385 L16.3016529,18.1940299 C15.5206612,18.6135987 15,19.4527363 15,20.4444444 C15,21.8175788 16.1157025,23 17.4917355,23 Z" id="Shape"></path>
                <path d="M33.752784,25 C31.9209354,25 30.9075724,25.7244094 30.2060134,26.2598425 C29.5824053,26.7322835 29.1926503,26.984252 28.3351893,26.984252 C27.4777283,26.984252 27.0879733,26.7007874 26.4643653,26.2598425 C25.7238307,25.7244094 24.7494432,25 22.9175947,25 C21.0857461,25 20.0723831,25.7244094 19.3708241,26.2598425 C18.747216,26.7322835 18.357461,26.984252 17.5,26.984252 C16.642539,26.984252 16.252784,26.7007874 15.6291759,26.2598425 C14.8886414,25.7244094 13.9142539,25 12.0824053,25 C10.2505568,25 9.23719376,25.7244094 8.53563474,26.2598425 C7.91202673,26.7322835 7.52227171,26.984252 6.66481069,26.984252 C5.80734967,26.984252 5.41759465,26.7007874 4.79398664,26.2598425 C4.05345212,25.7244094 3.07906459,25 1.24721604,25 C0.545657016,25 0,25.4409449 0,26.007874 C0,26.5748031 0.545657016,27.015748 1.24721604,27.015748 C2.10467706,27.015748 2.49443207,27.2992126 3.11804009,27.7401575 C3.85857461,28.2755906 4.83296214,29 6.66481069,29 C8.49665924,29 9.51002227,28.2755906 10.2115813,27.7401575 C10.8351893,27.2677165 11.2249443,27.015748 12.0824053,27.015748 C12.9398664,27.015748 13.3296214,27.2992126 13.9532294,27.7401575 C14.6937639,28.2755906 15.6681514,29 17.5,29 C19.3318486,29 20.3452116,28.2755906 21.0467706,27.7401575 C21.6703786,27.2677165 22.0601336,27.015748 22.9175947,27.015748 C23.7750557,27.015748 24.1648107,27.2992126 24.7884187,27.7401575 C25.5289532,28.2755906 26.5033408,29 28.3351893,29 C30.1670379,29 31.1804009,28.2755906 31.8819599,27.7401575 C32.5055679,27.2677165 32.8953229,27.015748 33.752784,27.015748 C34.454343,27.015748 35,26.5748031 35,26.007874 C35,25.4409449 34.454343,25 33.752784,25 Z" id="Shape"></path>
                <path d="M22,20.007874 C22,20.5748031 22.5321637,21.015748 23.2163743,21.015748 C24.0526316,21.015748 24.4327485,21.2992126 25.0409357,21.7401575 C25.7631579,22.2755906 26.7134503,23 28.5,23 C30.2865497,23 31.2748538,22.2755906 31.9590643,21.7401575 C32.5672515,21.2677165 32.9473684,21.015748 33.7836257,21.015748 C34.4678363,21.015748 35,20.5748031 35,20.007874 C35,19.4409449 34.4678363,19 33.7836257,19 C31.997076,19 31.0087719,19.7244094 30.3245614,20.2598425 C29.7163743,20.7322835 29.3362573,20.984252 28.5,20.984252 C27.6637427,20.984252 27.2836257,20.7007874 26.6754386,20.2598425 C25.9532164,19.7244094 25.002924,19 23.2163743,19 C22.5701754,19 22,19.4724409 22,20.007874 Z" id="Shape"></path>
                <path d="M1.21637427,21.015748 C2.05263158,21.015748 2.43274854,21.2992126 3.04093567,21.7401575 C3.76315789,22.2755906 4.71345029,23 6.5,23 C8.28654971,23 9.2748538,22.2755906 9.95906433,21.7401575 C10.5672515,21.2677165 10.9473684,21.015748 11.7836257,21.015748 C12.4678363,21.015748 13,20.5748031 13,20.007874 C13,19.4409449 12.4678363,19 11.7836257,19 C9.99707602,19 9.00877193,19.7244094 8.3245614,20.2598425 C7.71637427,20.7322835 7.33625731,20.984252 6.5,20.984252 C5.66374269,20.984252 5.28362573,20.7007874 4.6754386,20.2598425 C3.95321637,19.7244094 3.00292398,19 1.21637427,19 C0.532163743,19 0,19.4409449 0,20.007874 C1.01283504e-15,20.5748031 0.532163743,21.015748 1.21637427,21.015748 Z" id="Shape"></path>
            </g>
        </g>
    </g>
</svg>